# xmcd
#
# Track frame offsets:
#	150
#	17091
#	32547
#	46415
#	61155
#	73983
#	90567
#	102591
#	117851
#	131773
#	145292
#	159572
#	174606
#	190091
#
# Disc length: 2709
#
# Revision: 2
# Processed by: cddbd v1.5.1PL0 Copyright (c) Steve Scherf et al.
# Submitted via: audiograbber 1.83.01
# Normalized: r1:DSETVAR1
#
DISCID=c40a930e
DTITLE=Various Artist - Goldene Volksmusikparade 2002_6
DYEAR=2002
DGENRE=Volksmusik
TTITLE0=Kastelruther Spatzen - Solange wir uns lieben
TTITLE1=Nockalm Quintett - Tu's für mich
TTITLE2=Francine Jordi - Im Garten meiner Seele
TTITLE3=Stefanie Hertel - Tausendmal stärker
TTITLE4=Heintje Simons - Ball Paradox
TTITLE5=Katharina Herz and Torsten Benkenstein - Tango Valentino
TTITLE6=Die Egerländer Musikanten - Musik fürs Leben
TTITLE7=Klostertaler - Jetzt wird's Nacht
TTITLE8=Mara Kayser - Komm komm komm
TTITLE9=Zellberg Buam - Berge die mein Leben erzählen
TTITLE10=Marina - Unverschämt süßes Lächeln
TTITLE11=Die jungen Zillertaler - Du kannst mi gern hab'n
TTITLE12=Fernando Express - Südlich der Sehnsucht
TTITLE13=Daniela Merk - Neue Liebe braucht das Herz
EXTD=
EXTT0=
EXTT1=
EXTT2=
EXTT3=
EXTT4=
EXTT5=
EXTT6=
EXTT7=
EXTT8=
EXTT9=
EXTT10=
EXTT11=
EXTT12=
EXTT13=
PLAYORDER=
